####
#
# OBJ File Generated by Meshlab
#
####
# Object LD_SAG.obj
#
# Vertices: 54
# Faces: 104
#
####
vn -0.378033 -0.565033 -0.733368
v 382.662628 162.293015 -167.841995
vn 0.000000 -0.843295 -0.537450
v 383.156006 162.139206 -167.841995
vn 0.000000 -0.386767 -0.922177
v 383.156006 162.293015 -167.960938
vn -0.819541 0.000000 -0.573021
v 380.299500 165.083008 -167.841995
vn -0.574614 -0.353282 -0.738249
v 380.365997 164.785828 -167.841995
vn -0.396750 0.000000 -0.917927
v 380.365997 165.083008 -167.880692
vn -0.188594 -0.103010 -0.976638
v 383.156006 165.083008 -169.076645
vn -0.878987 -0.467912 0.091872
v 379.793182 162.293015 -165.052002
vn -0.462978 -0.884125 0.063042
v 380.365997 161.730408 -165.052002
vn -0.594009 -0.587992 -0.549016
v 380.365997 162.293015 -166.368042
vn -0.082736 -0.964682 -0.250087
v 383.156006 160.439087 -165.052002
vn -0.965977 -0.102325 -0.237524
v 378.388184 165.083008 -165.052002
vn 0.105686 -0.688410 -0.717581
v 385.427643 162.293015 -167.841995
vn 0.524901 -0.429630 -0.734777
v 385.945984 162.563919 -167.841995
vn 0.223746 0.002421 -0.974645
v 385.945984 165.083008 -169.173660
vn 0.889200 -0.104131 -0.445512
v 387.711243 165.083008 -167.841995
vn 0.402240 -0.915485 -0.009480
v 385.945984 161.235428 -165.052002
vn 0.687100 -0.623786 -0.372538
v 385.945984 162.293015 -167.542328
vn 0.875802 -0.482466 0.014014
v 387.155426 162.293015 -165.052002
vn 0.990691 -0.080753 0.109594
v 388.276062 165.083008 -165.052002
vn -0.668428 0.215815 -0.711778
v 380.365997 166.309692 -167.841995
vn -0.347586 0.501908 -0.792005
v 381.699188 167.873016 -167.841995
vn -0.060119 0.350146 -0.934764
v 383.156006 167.873016 -168.330536
vn -0.090865 0.820184 -0.564838
v 383.156006 168.573456 -167.841995
vn -0.921831 0.380962 -0.071388
v 379.210419 167.873016 -165.052002
vn -0.625885 0.544569 -0.558311
v 380.365997 167.873016 -167.077530
vn -0.470753 0.867380 -0.161379
v 380.365997 169.170090 -165.052002
vn -0.108418 0.976226 -0.187693
v 383.156006 170.450363 -165.052002
vn 0.128968 0.375074 -0.917980
v 385.945984 167.873016 -168.230896
vn 0.743754 0.384441 -0.546840
v 386.633392 167.873016 -167.841995
vn 0.356576 0.795817 -0.489417
v 385.945984 168.342209 -167.841995
vn 0.894891 0.438560 0.082681
v 387.610260 167.873016 -165.052002
vn 0.443110 0.896255 -0.019497
v 385.945984 169.789795 -165.052002
vn -0.701746 -0.684009 0.199211
v 380.365997 162.293015 -162.351212
vn -0.342378 -0.683769 0.644389
v 380.437225 162.293015 -162.261993
vn -0.054737 -0.935043 0.350282
v 383.156006 160.983246 -162.261993
vn -0.929273 -0.079226 0.360797
v 379.184296 165.083008 -162.261993
vn -0.543458 -0.393897 0.741282
v 380.365997 162.380264 -162.261993
vn -0.020763 -0.468352 0.883298
v 383.156006 162.293015 -160.868820
vn -0.471334 -0.074635 0.878791
v 380.365997 165.083008 -160.832596
vn 0.032806 -0.033352 0.998905
v 383.156006 165.083008 -159.798981
vn 0.372543 -0.878432 0.299282
v 385.945984 162.005753 -162.261993
vn 0.831478 -0.461385 0.309464
v 386.244354 162.293015 -162.261993
vn 0.880001 -0.007756 0.474908
v 387.093964 165.083008 -162.261993
vn 0.443394 -0.424370 0.789501
v 385.945984 162.293015 -161.947845
vn 0.491166 0.016672 0.870906
v 385.945984 165.083008 -161.015854
vn -0.902725 0.306776 0.301623
v 379.844025 167.873016 -162.261993
vn -0.466096 0.782576 0.412710
v 380.365997 168.560303 -162.261993
vn 0.028134 0.880812 0.472630
v 383.156006 169.646286 -162.261993
vn -0.512975 0.307186 0.801557
v 380.365997 167.873016 -161.593475
vn 0.059602 0.442181 0.894943
v 383.156006 167.873016 -160.682510
vn 0.438554 0.685205 0.581519
v 385.932220 167.873016 -162.261993
vn 0.664297 0.345718 0.662712
v 385.945984 167.854767 -162.261993
vn 0.687816 0.596468 0.413684
v 385.945984 167.873016 -162.275116
# 54 vertices, 54 vertices normals

f 1//1 3//3 2//2
f 4//4 6//6 5//5
f 5//5 6//6 7//7
f 1//1 5//5 7//7
f 7//7 3//3 1//1
f 8//8 10//10 9//9
f 11//11 9//9 10//10
f 10//10 1//1 11//11
f 1//1 2//2 11//11
f 12//12 4//4 5//5
f 12//12 5//5 10//10
f 12//12 10//10 8//8
f 1//1 10//10 5//5
f 2//2 3//3 13//13
f 13//13 3//3 7//7
f 13//13 7//7 15//15
f 13//13 15//15 14//14
f 14//14 15//15 16//16
f 11//11 2//2 13//13
f 17//17 11//11 13//13
f 13//13 18//18 17//17
f 17//17 18//18 19//19
f 14//14 18//18 13//13
f 16//16 19//19 18//18
f 18//18 14//14 16//16
f 19//19 16//16 20//20
f 21//21 6//6 4//4
f 22//22 23//23 7//7
f 21//21 22//22 7//7
f 7//7 6//6 21//21
f 24//24 23//23 22//22
f 25//25 26//26 21//21
f 12//12 25//25 21//21
f 21//21 4//4 12//12
f 21//21 26//26 22//22
f 27//27 26//26 25//25
f 27//27 28//28 24//24
f 24//24 22//22 27//27
f 22//22 26//26 27//27
f 23//23 29//29 15//15
f 15//15 7//7 23//23
f 30//30 16//16 15//15
f 15//15 29//29 30//30
f 31//31 29//29 23//23
f 31//31 23//23 24//24
f 30//30 29//29 31//31
f 32//32 20//20 16//16
f 16//16 30//30 32//32
f 33//33 31//31 24//24
f 33//33 24//24 28//28
f 32//32 30//30 31//31
f 32//32 31//31 33//33
f 9//9 34//34 8//8
f 36//36 35//35 34//34
f 36//36 34//34 9//9
f 9//9 11//11 36//36
f 37//37 12//12 8//8
f 37//37 8//8 34//34
f 37//37 34//34 38//38
f 38//38 34//34 35//35
f 36//36 39//39 35//35
f 38//38 40//40 37//37
f 38//38 35//35 39//39
f 39//39 41//41 40//40
f 39//39 40//40 38//38
f 36//36 11//11 17//17
f 36//36 17//17 42//42
f 43//43 42//42 17//17
f 17//17 19//19 43//43
f 44//44 43//43 19//19
f 19//19 20//20 44//44
f 36//36 42//42 45//45
f 45//45 39//39 36//36
f 43//43 45//45 42//42
f 46//46 41//41 39//39
f 39//39 45//45 46//46
f 44//44 46//46 45//45
f 44//44 45//45 43//43
f 37//37 47//47 25//25
f 25//25 12//12 37//37
f 48//48 27//27 25//25
f 48//48 25//25 47//47
f 49//49 28//28 27//27
f 49//49 27//27 48//48
f 37//37 40//40 50//50
f 37//37 50//50 47//47
f 51//51 50//50 40//40
f 40//40 41//41 51//51
f 47//47 50//50 48//48
f 48//48 50//50 51//51
f 48//48 51//51 49//49
f 53//53 54//54 52//52
f 44//44 20//20 32//32
f 53//53 44//44 32//32
f 32//32 54//54 53//53
f 52//52 54//54 33//33
f 49//49 52//52 33//33
f 33//33 28//28 49//49
f 33//33 54//54 32//32
f 53//53 52//52 51//51
f 51//51 41//41 46//46
f 51//51 46//46 53//53
f 53//53 46//46 44//44
f 49//49 51//51 52//52
# 104 faces, 0 coords texture

# End of File