v 346.172 175.869 271.779
v 346.338 175.853 271.87
v 346.957 175.359 271.978
v 347.548 175.081 272.017
v 347.076 174.846 271.892
v 348.434 174.37 272.09
v 348.232 173.968 272.149
v 349.233 173.592 272.21
v 348.981 172.696 272.28
v 349.782 172.48 272.411
v 349.738 171.751 272.418
v 350.198 171.473 272.575
v 350.768 171.478 272.601
v 351.793 171.366 272.542
v 353.04 171.439 272.398
v 350.765 170.914 272.635
v 351.443 170.86 272.628
v 354.129 170.927 272.325
v 352.689 170.425 272.487
v 354.44 170.15 272.301
v 352.658 169.674 272.406
v 353.608 169.575 272.345
v 354.6 169.501 272.238
v 354.123 169.169 272.171
v 341.559 182.765 271.795
v 341.605 182.709 271.79
v 341.678 182.621 271.783
v 341.872 182.378 271.763
v 342.114 182.075 271.742
v 342.51 181.556 271.706
v 342.973 180.938 271.673
v 343.086 180.77 271.665
v 343.766 179.863 271.628
v 344.296 179.147 271.61
v 343.919 179.551 271.63
v 344.409 178.94 271.628
v 344.6 178.436 271.622
v 345.1 177.83 271.687
v 345.077 177.577 271.617
v 346.188 176.655 271.774
v 345.691 176.693 271.751
v 346.121 176.411 271.849
v 346.746 175.883 271.923
v 347.099 175.731 271.872
v 345.716 176.45 271.653
v 348.033 174.993 271.911
v 348.846 174.611 271.732
v 356.31 172.705 271.744
v 356.612 172.55 271.751
v 346.422 175.451 271.682
v 349.281 174.071 272.007
v 350.633 173.612 271.771
v 356.295 172.569 271.802
v 356.877 172.14 271.839
v 357.757 172.064 271.821
v 350.601 172.988 272.211
v 352.426 172.761 272.033
v 353.936 172.363 272.055
v 355.392 172.238 271.935
v 357.946 171.987 271.826
v 348.307 173.319 272.03
v 350.957 172.077 272.472
v 352 172.14 272.355
v 353.18 172.121 272.236
v 357.605 171.656 271.849
v 349.237 172.16 272.202
v 354.326 171.719 272.195
v 357.759 171.235 271.827
v 350.416 171.026 272.248
v 350.311 171.069 272.532
v 355.889 171.064 272.062
v 357.343 170.824 271.883
v 350.857 170.62 272.536
v 351.439 170.488 272.595
v 355.392 169.926 272.144
v 357.595 170.551 271.834
v 351.726 170.119 272.425
v 355.149 169.352 272.079
v 356.411 170.047 271.926
v 357.352 170.377 271.874
v 352.335 169.602 272.326
v 353.046 169.351 272.248
v 354.577 169.037 272.003
v 355.314 169.284 271.883
v 352.055 169.871 272.094
v 353.569 169.178 271.972
v 354.489 169.05 271.85
v 341.67 182.633 271.783
v 341.772 182.511 271.773
v 341.854 182.406 271.765
v 341.956 182.279 271.755
v 342.245 181.903 271.728
v 342.552 181.509 271.701
v 343.241 180.592 271.648
v 343.999 179.529 271.604
v 345.155 177.969 271.609
v 344.495 178.561 271.575
v 344.9 177.845 271.537
v 345.434 176.944 271.538
v 347.125 175.829 271.645
v 345.951 176.059 271.574
v 348.547 174.699 271.525
v 355.656 172.604 271.752
v 356.189 172.564 271.697
v 346.498 175.364 271.565
v 349.545 174.146 271.552
v 350.383 173.635 271.472
v 351.582 173.173 271.494
v 352.392 173.048 271.71
v 354.061 172.645 271.793
v 356.708 172.151 271.706
v 357.522 172.098 271.783
v 347.637 174.121 271.648
v 357.864 171.984 271.806
v 349.185 172.33 271.89
v 357.493 171.691 271.756
v 357.787 171.421 271.801
v 357.494 170.958 271.778
v 357.488 170.49 271.797
v 350.861 171.082 271.672
v 357.31 170.299 271.837
v 355.904 169.712 271.758
v 356.783 170.332 271.749
v 352.747 169.75 271.665
v 353.913 169.218 271.723
v 354.863 169.386 271.672
v 343.154 180.676 271.655
v 344.092 179.285 271.58
v 344.57 178.637 271.554
v 344.669 178.334 271.528
v 345.132 177.759 271.518
v 345.105 177.59 271.502
v 345.907 176.875 271.531
v 345.667 176.858 271.49
v 346.684 175.748 271.481
v 346.099 176.036 271.503
v 347.963 174.78 271.436
v 346.827 175.163 271.502
v 349.385 173.907 271.379
v 347.627 174.538 271.438
v 348.396 173.606 271.421
v 348.7 173.805 271.339
v 350.826 173.078 271.328
v 352.106 172.619 271.349
v 353.123 172.683 271.519
v 349.187 172.661 271.526
v 349.239 173.008 271.34
v 353.329 172 271.362
v 355.063 172.218 271.584
v 349.969 172.978 271.285
v 350.316 172.112 271.361
v 351.656 171.976 271.271
v 354.578 171.38 271.415
v 353.307 170.993 271.292
v 351.389 171.239 271.347
v 352.237 170.935 271.268
v 354.721 170.525 271.421
v 356.18 171.167 271.606
v 352.147 170.444 271.399
v 352.87 170.38 271.295
v 353.043 169.919 271.407
v 353.734 170.093 271.36
v 354.593 169.811 271.482
v 355.601 170.069 271.594
v 353.825 169.555 271.521
v 341.559 182.765 271.795
v 341.605 182.709 271.79
v 341.678 182.621 271.783
v 341.872 182.378 271.763
v 341.872 182.378 271.763
v 341.872 182.378 271.763
v 342.114 182.075 271.742
v 342.114 182.075 271.742
v 342.114 182.075 271.742
v 342.51 181.556 271.706
v 342.51 181.556 271.706
v 342.51 181.556 271.706
v 342.51 181.556 271.706
v 342.51 181.556 271.706
v 342.973 180.938 271.673
v 342.973 180.938 271.673
v 342.973 180.938 271.673
v 343.086 180.77 271.665
v 343.766 179.863 271.628
v 344.296 179.147 271.61
v 348.846 174.611 271.732
v 356.31 172.705 271.744
v 356.612 172.55 271.751
v 350.633 173.612 271.771
v 356.877 172.14 271.839
v 356.877 172.14 271.839
v 357.757 172.064 271.821
v 357.757 172.064 271.821
v 357.946 171.987 271.826
v 357.605 171.656 271.849
v 357.605 171.656 271.849
v 357.759 171.235 271.827
v 357.759 171.235 271.827
v 350.311 171.069 272.532
v 357.343 170.824 271.883
v 350.857 170.62 272.536
v 357.595 170.551 271.834
v 351.726 170.119 272.425
v 352.335 169.602 272.326
v 341.67 182.633 271.783
v 341.67 182.633 271.783
v 341.67 182.633 271.783
v 341.772 182.511 271.773
v 341.854 182.406 271.765
v 341.956 182.279 271.755
v 341.956 182.279 271.755
v 341.956 182.279 271.755
v 342.245 181.903 271.728
v 342.552 181.509 271.701
v 343.241 180.592 271.648
v 343.241 180.592 271.648
v 345.155 177.969 271.609
v 344.9 177.845 271.537
v 347.125 175.829 271.645
v 355.656 172.604 271.752
v 352.392 173.048 271.71
v 354.061 172.645 271.793
v 356.708 172.151 271.706
v 357.522 172.098 271.783
v 357.787 171.421 271.801
v 357.494 170.958 271.778
v 357.494 170.958 271.778
v 357.31 170.299 271.837
v 343.154 180.676 271.655
v 343.154 180.676 271.655
vn -0.624777 -0.410949 0.663909
vn -0.359948 -0.188265 0.91378
vn -0.172079 -0.0377954 0.984358
vn 0.139082 0.261942 0.955009
vn -0.575305 -0.435741 0.692209
vn 0.148641 0.297745 0.943002
vn -0.180387 -0.0102196 0.983543
vn 0.0971328 0.259567 0.960828
vn -0.432098 -0.204517 0.87833
vn -0.0624619 0.13936 0.98827
vn -0.584755 -0.380522 0.716425
vn -0.225809 -0.0329386 0.973615
vn 0.0148905 0.129287 0.991495
vn 0.0989992 0.141252 0.985011
vn 0.107094 0.143819 0.983792
vn -0.138182 -0.154293 0.978314
vn 0.061717 0.0151894 0.997978
vn 0.122096 0.0705557 0.990007
vn 0.0795575 -0.0623941 0.994876
vn 0.127181 -0.0254895 0.991552
vn -0.0421523 -0.309757 0.949881
vn 0.0577412 -0.231342 0.971157
vn 0.142371 -0.210093 0.96726
vn 0.0222167 -0.627987 0.777907
vn 0 0 0
vn 0 0 0
vn 0 0 0
vn 0 0 0
vn 0 0 0
vn 0 0 0
vn 0 0 0
vn 0 0 0
vn 0.238247 0.154628 0.958816
vn 0.442463 0.314598 0.839794
vn -0.483959 -0.292295 0.824832
vn 0.333555 0.243443 0.910756
vn -0.60275 -0.356764 0.713731
vn -0.0489711 0.0505056 0.997523
vn -0.740994 -0.410022 0.531799
vn 0.367877 0.427499 0.825779
vn -0.472412 -0.220766 0.853282
vn -0.0846965 0.0674513 0.994121
vn 0.129147 0.250379 0.959495
vn 0.436369 0.543886 0.716778
vn -0.799902 -0.484864 0.353643
vn 0.382878 0.566467 0.72974
vn 0.409872 0.656684 0.633065
vn 0.0599299 0.385888 0.920597
vn 0.169198 0.340561 0.924873
vn -0.755287 -0.602735 0.257393
vn 0.289963 0.503261 0.814033
vn 0.267477 0.621045 0.736722
vn 0.0647952 0.350564 0.934295
vn 0.084268 0.16656 0.982424
vn 0.0134058 0.0635277 0.99789
vn 0.1453 0.3869 0.910602
vn 0.151091 0.562669 0.812757
vn 0.122652 0.455585 0.881702
vn 0.0749257 0.337086 0.938488
vn 0.00129295 0.0680256 0.997683
vn -0.731417 -0.53028 0.428757
vn 0.0664552 0.240425 0.96839
vn 0.103857 0.287515 0.952129
vn 0.107236 0.302898 0.946971
vn 0.119024 0.0571145 0.991247
vn -0.738346 -0.625573 0.251998
vn 0.127467 0.199473 0.971577
vn 0.243244 0.0383176 0.969208
vn -0.631045 -0.748018 -0.205553
vn -0.346646 -0.26292 0.900394
vn 0.133035 0.0559856 0.989529
vn 0.171627 0.0189499 0.98498
vn -0.570816 -0.786733 -0.23499
vn -0.0480885 -0.298481 0.953203
vn 0.19544 -0.0979049 0.975816
vn 0.298834 0.105585 0.948446
vn -0.584787 -0.800375 -0.132
vn 0.270061 -0.476382 0.836736
vn 0.40092 -0.596752 0.69509
vn 0.15915 -0.189374 0.968921
vn -0.121851 -0.441407 0.888995
vn -0.208937 -0.85032 0.483012
vn 0.114646 -0.932783 0.341719
vn 0.425345 -0.893041 -0.146832
vn -0.500586 -0.797588 -0.336551
vn -0.266531 -0.952674 -0.146198
vn 0.0459376 -0.869153 -0.492406
vn 0 0 0
vn 0 0 0
vn 0 0 0
vn 0 0 0
vn 0 0 0
vn 0 0 0
vn 0 0 0
vn 0.265603 0.223589 -0.937797
vn 0.411504 0.323326 -0.85213
vn -0.865059 -0.486184 -0.123684
vn -0.843509 -0.494458 0.209771
vn -0.697101 -0.418694 -0.582019
vn 0.55671 0.656678 0.50877
vn -0.77501 -0.536866 -0.333369
vn 0.349838 0.572553 -0.741483
vn -0.0196544 0.432198 0.901565
vn 0.0433718 0.25685 -0.965478
vn -0.61971 -0.534164 -0.575003
vn 0.399242 0.719672 -0.568048
vn 0.300237 0.643228 -0.704354
vn 0.236023 0.659472 -0.713716
vn 0.20318 0.74246 0.638334
vn 0.115435 0.62148 0.774879
vn 0.185428 0.105884 -0.976937
vn 0.0774885 0.985039 0.153929
vn -0.675035 -0.619172 -0.401191
vn 0.298391 -0.219253 -0.928919
vn -0.656558 -0.658435 -0.36796
vn 0.251009 0.0350431 -0.96735
vn 0.408951 0.138804 -0.901938
vn 0.193365 -0.0690815 -0.978692
vn 0.19013 -0.137846 -0.972034
vn -0.463668 -0.582497 -0.667615
vn 0.116234 -0.472994 -0.873365
vn 0.399798 -0.634192 -0.661787
vn 0.210181 -0.351627 -0.91224
vn -0.34807 -0.677646 -0.647799
vn -0.129 -0.671865 -0.729354
vn 0.139139 -0.457658 -0.878174
vn -0.816568 -0.558518 0.145857
vn -0.419034 -0.210262 -0.88329
vn 0.270279 0.218937 -0.937558
vn -0.240031 -0.0957583 -0.966031
vn 0.219433 0.180356 -0.958812
vn -0.217718 -0.1149 -0.969225
vn 0.270525 0.231508 -0.934462
vn -0.030426 -0.00446248 -0.999527
vn 0.0641942 0.0930771 -0.993587
vn -0.276583 -0.200373 -0.939869
vn 0.102751 0.220066 -0.970058
vn -0.279018 -0.260542 -0.924266
vn 0.140868 0.29738 -0.94431
vn -0.221157 -0.162287 -0.961641
vn -0.368077 -0.328129 -0.869971
vn -0.068937 0.00120004 -0.99762
vn 0.104799 0.239747 -0.965163
vn 0.106419 0.238643 -0.965259
vn 0.184238 0.563653 -0.805203
vn -0.460451 -0.507197 -0.728516
vn -0.209428 -0.225306 -0.951513
vn 0.08801 0.145016 -0.985507
vn 0.0812861 0.29927 -0.9507
vn -0.0201464 0.0065698 -0.999776
vn -0.215174 -0.272464 -0.937797
vn -0.00644901 0.010212 -0.999927
vn 0.106566 0.0692892 -0.991888
vn 0.0579944 0.00746512 -0.998289
vn -0.228137 -0.250825 -0.940766
vn -0.0801886 -0.104904 -0.991244
vn 0.115555 -0.0501359 -0.992035
vn 0.120883 -0.000848179 -0.992666
vn -0.282458 -0.404932 -0.869625
vn -0.0490857 -0.166587 -0.984804
vn -0.145761 -0.427337 -0.892265
vn 0.0485243 -0.16645 -0.984855
vn 0.109752 -0.233976 -0.966028
vn 0.16311 -0.186839 -0.968755
vn -0.0433405 -0.454238 -0.889826
vn 0 0 0
vn 0 0 0
vn 0 0 0
vn 0 0 0
vn 0 0 0
vn 0 0 0
vn 0 0 0
vn 0 0 0
vn 0 0 0
vn 0 0 0
vn 0 0 0
vn 0 0 0
vn 0 0 0
vn 0 0 0
vn 0.190866 0.0999072 0.976519
vn 0 0 0
vn 0 0 0
vn 0 0 0
vn 0 0 0
vn 0 0 0
vn 0.489448 0.791188 -0.366691
vn 0.0315129 0.291597 -0.956022
vn 0.30011 0.201538 -0.932371
vn 0.389799 0.857104 -0.336794
vn 0.610781 0.232361 -0.756938
vn 0.0774885 0.985039 0.153929
vn 0.088149 0.94853 0.304172
vn 0 0 0
vn 0 0 0
vn 0.472114 -0.470544 -0.745451
vn 0.618236 0.585791 -0.524055
vn 0.359412 -0.182015 -0.915256
vn 0.705751 -0.697321 0.125136
vn -0.687284 -0.711497 -0.146331
vn 0.705751 -0.697321 0.125136
vn -0.237585 -0.433058 0.869491
vn 0.347949 -0.0424345 -0.936553
vn -0.0826506 -0.350311 0.93298
vn -0.512677 -0.800768 -0.309729
vn 0 0 0
vn 0 0 0
vn 0 0 0
vn 0 0 0
vn 0 0 0
vn 0 0 0
vn 0 0 0
vn 0 0 0
vn 0 0 0
vn 0 0 0
vn 0 0 0
vn 0 0 0
vn 0.429382 0.374268 0.821921
vn -0.508285 -0.271478 -0.817279
vn 0.334421 0.409797 -0.848663
vn -0.0455629 0.417966 -0.907319
vn 0.245115 0.804458 -0.541079
vn 0.139365 0.667303 -0.731631
vn 0.0649668 0.997887 -1.09339e-05
vn 0.0923154 0.0594544 -0.993953
vn 0.347611 0.0783131 0.934363
vn 0.705751 -0.697321 0.125136
vn 0.414361 0.224142 0.88208
vn 0.225999 -0.51403 0.827464
vn 0.148005 0.152482 -0.977161
vn 0 0 0
f 197//197 118//118 117//117
f 162//162 165//165 161//161
f 72//72 76//76 227//227
f 180//180 33//33 94//94
f 200//200 226//226 198//198
f 119//119 123//123 118//118
f 7//7 61//61 9//9
f 26//26 28//28 27//27
f 65//65 60//60 55//55
f 64//64 63//63 15//15
f 179//179 213//213 230//230
f 190//190 111//111 188//188
f 74//74 201//201 203//203
f 80//80 79//79 228//228
f 208//208 211//211 206//206
f 29//29 168//168 169//169
f 170//170 30//30 172//172
f 31//31 173//173 175//175
f 209//209 207//207 212//212
f 32//32 178//178 127//127
f 182//182 176//176 183//183
f 126//126 163//163 164//164
f 38//38 36//36 35//35
f 219//219 133//133 96//96
f 101//101 99//99 136//136
f 54//54 59//59 71//71
f 7//7 3//3 5//5
f 5//5 3//3 2//2
f 69//69 120//120 85//85
f 85//85 120//120 124//124
f 9//9 10//10 7//7
f 7//7 10//10 8//8
f 16//16 13//13 12//12
f 12//12 13//13 10//10
f 195//195 116//116 114//114
f 114//114 116//116 224//224
f 19//19 14//14 17//17
f 17//17 14//14 13//13
f 192//192 112//112 191//191
f 191//191 112//112 223//223
f 71//71 79//79 72//72
f 72//72 79//79 80//80
f 26//26 27//27 25//25
f 25//25 27//27 205//205
f 21//21 22//22 19//19
f 19//19 22//22 20//20
f 180//180 35//35 33//33
f 33//33 35//35 36//36
f 70//70 201//201 16//16
f 16//16 201//201 74//74
f 186//186 189//189 106//106
f 106//106 189//189 107//107
f 45//45 41//41 39//39
f 39//39 41//41 38//38
f 39//39 99//99 45//45
f 45//45 99//99 101//101
f 45//45 1//1 41//41
f 41//41 1//1 2//2
f 174//174 180//180 93//93
f 93//93 180//180 94//94
f 7//7 5//5 61//61
f 61//61 5//5 113//113
f 83//83 86//86 87//87
f 87//87 86//86 125//125
f 130//130 131//131 132//132
f 132//132 131//131 134//134
f 82//82 86//86 24//24
f 24//24 86//86 83//83
f 72//72 80//80 76//76
f 76//76 80//80 228//228
f 166//166 88//88 167//167
f 167//167 88//88 171//171
f 56//56 63//63 57//57
f 57//57 63//63 64//64
f 78//78 75//75 23//23
f 23//23 75//75 20//20
f 10//10 13//13 62//62
f 62//62 13//13 14//14
f 71//71 65//65 54//54
f 54//54 65//65 55//55
f 158//158 164//164 157//157
f 157//157 164//164 163//163
f 224//224 116//116 111//111
f 111//111 116//116 158//158
f 21//21 82//82 22//22
f 22//22 82//82 24//24
f 11//11 70//70 12//12
f 12//12 70//70 16//16
f 11//11 69//69 199//199
f 199//199 69//69 73//73
f 126//126 165//165 163//163
f 163//163 165//165 162//162
f 163//163 162//162 157//157
f 43//43 44//44 40//40
f 40//40 44//44 100//100
f 40//40 100//100 217//217
f 54//54 49//49 53//53
f 53//53 49//49 48//48
f 53//53 48//48 103//103
f 54//54 53//53 59//59
f 59//59 53//53 103//103
f 59//59 103//103 110//110
f 71//71 72//72 65//65
f 65//65 72//72 68//68
f 65//65 68//68 225//225
f 82//82 85//85 86//86
f 86//86 85//85 124//124
f 86//86 124//124 125//125
f 88//88 90//90 171//171
f 171//171 90//90 92//92
f 171//171 92//92 177//177
f 219//219 102//102 137//137
f 137//137 102//102 139//139
f 137//137 139//139 142//142
f 141//141 113//113 140//140
f 140//140 113//113 138//138
f 140//140 138//138 135//135
f 145//145 149//149 148//148
f 148//148 149//149 153//153
f 148//148 153//153 154//154
f 215//215 184//184 95//95
f 95//95 184//184 185//185
f 95//95 185//185 96//96
f 151//151 152//152 155//155
f 155//155 152//152 156//156
f 155//155 156//156 159//159
f 151//151 155//155 120//120
f 120//120 155//155 159//159
f 120//120 159//159 124//124
f 37//37 97//97 39//39
f 39//39 97//97 98//98
f 39//39 98//98 99//99
f 224//224 193//193 114//114
f 114//114 193//193 194//194
f 114//114 194//194 195//195
f 38//38 41//41 42//42
f 42//42 41//41 2//2
f 42//42 2//2 3//3
f 181//181 32//32 35//35
f 35//35 32//32 127//127
f 35//35 127//127 128//128
f 4//4 6//6 46//46
f 46//46 6//6 51//51
f 46//46 51//51 47//47
f 47//47 51//51 52//52
f 205//205 27//27 89//89
f 89//89 27//27 174//174
f 89//89 174//174 91//91
f 91//91 174//174 93//93
f 1//1 45//45 50//50
f 50//50 45//45 101//101
f 50//50 101//101 105//105
f 105//105 101//101 136//136
f 43//43 4//4 44//44
f 44//44 4//4 46//46
f 44//44 46//46 100//100
f 100//100 46//46 47//47
f 73//73 69//69 77//77
f 77//77 69//69 85//85
f 77//77 85//85 204//204
f 204//204 85//85 82//82
f 110//110 58//58 59//59
f 59//59 58//58 67//67
f 59//59 67//67 71//71
f 71//71 67//67 18//18
f 219//219 186//186 102//102
f 102//102 186//186 106//106
f 102//102 106//106 139//139
f 139//139 106//106 107//107
f 108//108 144//144 143//143
f 143//143 144//144 152//152
f 143//143 152//152 150//150
f 150//150 152//152 151//151
f 90//90 210//210 92//92
f 92//92 210//210 214//214
f 92//92 214//214 229//229
f 229//229 214//214 216//216
f 229//229 216//216 95//95
f 97//97 130//130 218//218
f 218//218 130//130 132//132
f 218//218 132//132 99//99
f 99//99 132//132 134//134
f 99//99 134//134 136//136
f 133//133 219//219 135//135
f 135//135 219//219 137//137
f 135//135 137//137 140//140
f 140//140 137//137 142//142
f 140//140 142//142 141//141
f 187//187 104//104 220//220
f 220//220 104//104 149//149
f 220//220 149//149 222//222
f 222//222 149//149 145//145
f 222//222 145//145 221//221
f 110//110 57//57 58//58
f 58//58 57//57 64//64
f 58//58 64//64 67//67
f 67//67 64//64 15//15
f 67//67 15//15 18//18
f 19//19 15//15 14//14
f 14//14 15//15 63//63
f 14//14 63//63 62//62
f 62//62 63//63 56//56
f 62//62 56//56 10//10
f 10//10 56//56 8//8
f 118//118 202//202 119//119
f 119//119 202//202 121//121
f 119//119 121//121 123//123
f 123//123 121//121 79//79
f 123//123 79//79 122//122
f 122//122 79//79 84//84
f 11//11 66//66 69//69
f 69//69 66//66 115//115
f 69//69 115//115 120//120
f 120//120 115//115 146//146
f 120//120 146//146 151//151
f 151//151 146//146 147//147
f 151//151 147//147 150//150
f 39//39 38//38 37//37
f 37//37 38//38 35//35
f 37//37 35//35 97//97
f 97//97 35//35 128//128
f 97//97 128//128 130//130
f 130//130 128//128 129//129
f 130//130 129//129 131//131
f 15//15 19//19 18//18
f 18//18 19//19 20//20
f 18//18 20//20 71//71
f 71//71 20//20 75//75
f 71//71 75//75 79//79
f 79//79 75//75 78//78
f 79//79 78//78 84//84
f 13//13 16//16 17//17
f 17//17 16//16 74//74
f 17//17 74//74 19//19
f 19//19 74//74 203//203
f 19//19 203//203 21//21
f 21//21 203//203 81//81
f 21//21 81//81 82//82
f 196//196 117//117 116//116
f 116//116 117//117 118//118
f 116//116 118//118 158//158
f 158//158 118//118 123//123
f 158//158 123//123 164//164
f 164//164 123//123 122//122
f 164//164 122//122 126//126
f 126//126 122//122 84//84
f 4//4 7//7 6//6
f 6//6 7//7 8//8
f 6//6 8//8 51//51
f 51//51 8//8 56//56
f 51//51 56//56 52//52
f 52//52 56//56 57//57
f 52//52 57//57 109//109
f 109//109 57//57 110//110
f 7//7 4//4 3//3
f 3//3 4//4 43//43
f 3//3 43//43 42//42
f 42//42 43//43 40//40
f 42//42 40//40 38//38
f 38//38 40//40 217//217
f 38//38 217//217 36//36
f 36//36 217//217 34//34
f 36//36 34//34 33//33
f 187//187 188//188 104//104
f 104//104 188//188 111//111
f 104//104 111//111 149//149
f 149//149 111//111 158//158
f 149//149 158//158 153//153
f 153//153 158//158 157//157
f 153//153 157//157 154//154
f 154//154 157//157 162//162
f 154//154 162//162 160//160
f 160//160 162//162 161//161
f 2//2 1//1 5//5
f 5//5 1//1 50//50
f 5//5 50//50 113//113
f 113//113 50//50 105//105
f 113//113 105//105 138//138
f 138//138 105//105 136//136
f 138//138 136//136 135//135
f 135//135 136//136 134//134
f 135//135 134//134 133//133
f 133//133 134//134 131//131
f 133//133 131//131 96//96
f 96//96 131//131 129//129
f 96//96 129//129 95//95
f 95//95 129//129 128//128
f 95//95 128//128 229//229
f 12//12 10//10 11//11
f 11//11 10//10 9//9
f 11//11 9//9 66//66
f 66//66 9//9 61//61
f 66//66 61//61 115//115
f 115//115 61//61 113//113
f 115//115 113//113 146//146
f 146//146 113//113 141//141
f 146//146 141//141 147//147
f 147//147 141//141 142//142
f 147//147 142//142 150//150
f 150//150 142//142 139//139
f 150//150 139//139 143//143
f 143//143 139//139 107//107
f 143//143 107//107 108//108
f 108//108 107//107 189//189
f 108//108 189//189 221//221
f 20//20 22//22 23//23
f 23//23 22//22 24//24
f 23//23 24//24 78//78
f 78//78 24//24 83//83
f 78//78 83//83 84//84
f 84//84 83//83 87//87
f 84//84 87//87 126//126
f 126//126 87//87 125//125
f 126//126 125//125 165//165
f 165//165 125//125 124//124
f 165//165 124//124 161//161
f 161//161 124//124 159//159
f 161//161 159//159 160//160
f 160//160 159//159 156//156
f 160//160 156//156 154//154
f 154//154 156//156 152//152
f 154//154 152//152 148//148
f 148//148 152//152 144//144
f 148//148 144//144 145//145
f 145//145 144//144 108//108
f 145//145 108//108 221//221
